# xmcd
#
# Track frame offsets:
#	150
#	15384
#	30067
#	45532
#	60043
#	75960
#	89321
#	105081
#	119418
#	134652
#
# Disc length: 2011 seconds
#
# Revision: 0
# Processed by: cddbd v1.5.2PL0 Copyright (c) Steve Scherf et al.
# Submitted via: EasyCDDAExtractor 16.0.6.1
#
DISCID=5e07d90a
DTITLE=Συλλογικός δίσκος - Ιστορία ρεμπέτικου και λαϊκού 08-5
DYEAR=2007
DGENRE=Ποικίλη
TTITLE0=Καζαντζίδης Στέλιος - Το πουκάμισο (Άσπρο πουκ. φορώ)[Β. Τσιτσάνης]
TTITLE1=Καζαντζίδης Στέλιος - Έφυγες και πού μ' αφήνεις[Μ.Χιώτης-Κ.Βίρβος/Χ.Κο
TTITLE1=λοκοτρώνης]
TTITLE2=Καναρίδης Μανώλης - Όταν θα λάβεις αυτό το γράμμα [Γ. Ζαμπέτας-Γ. Μητσ
TTITLE2=άκης]
TTITLE3=Γαβαλάς Πάνος - Σιγανοψιχάλισμα [Π. Γαβαλάς-Χαρ. Βασιλειάδης]
TTITLE4=Γαβαλάς Πάνος-Καλδάρας Απόστολος - Στάσου στο 14 [Α. Καλδάρας-Κ.Βίρβος
TTITLE4=/Μ.Μπακάλης]
TTITLE5=Ρουμελιώτης Δημήτρης-Τζόϋ Γεωργία - Όπου Γιώργος και μάλαμα [Γ. Μητσάκ
TTITLE5=ης]
TTITLE6=Παγιουμτζής Στράτος - Οι τριανταφυλλιές (Καναβουριές)[Κ. Σκαρβέλης]
TTITLE7=Μοσχονάς Οδυσσέας-Περπινιάδης Στελλάκης - Ο καψούρης [Γ. Παπαϊωάννου]
TTITLE8=Γκρέϋ Καίτη - Για κοίτα κόσμε [Βασ. Τσιτσάνης]
TTITLE9=Χατζοπούλου Μαριάννα - Δεν μετανιώνω που σ' αγάπησα πολύ[Α.Καλδάρας-Α.
TTITLE9=Γκούβερης]
EXTD=
EXTT0=
EXTT1=
EXTT2=
EXTT3=
EXTT4=
EXTT5=
EXTT6=
EXTT7=
EXTT8=
EXTT9=
PLAYORDER=
